<?xml version="1.0" encoding="iso-8859-1"?>
<!-- Generator: Adobe Illustrator 24.1.0, SVG Export Plug-In . SVG Version: 6.00 Build 0)  -->
<svg version="1.1" id="Layer_1" xmlns="http://www.w3.org/2000/svg" xmlns:xlink="http://www.w3.org/1999/xlink" x="0px" y="0px"
	 viewBox="0 0 480 240" style="enable-background:new 0 0 480 240;" xml:space="preserve">
<g>
	<path style="fill:#092C6A;" d="M25.897,113.544c-7.154-3.114-12.962-7.773-17.423-13.978c-4.461-6.205-7.034-13.424-7.718-21.659
		c-0.684-8.233,0.66-15.778,4.038-22.635c3.376-6.857,8.335-12.411,14.876-16.661c6.541-4.251,14.088-6.73,22.639-7.441
		c7.203-0.599,13.82,0.127,19.849,2.177c6.031,2.051,11.221,5.285,15.574,9.706L66.33,55.48c-6.162-6.023-13.398-8.691-21.71-8.001
		c-5.146,0.428-9.644,1.938-13.494,4.529c-3.849,2.592-6.735,6.001-8.656,10.226c-1.92,4.223-2.666,8.91-2.239,14.055
		c0.428,5.147,1.936,9.644,4.528,13.494c2.592,3.85,6,6.735,10.226,8.656c4.224,1.922,8.909,2.667,14.056,2.239
		c8.313-0.69,15.005-4.553,20.081-11.592l13.298,10.374c-3.558,5.159-8.16,9.248-13.807,12.267c-5.65,3.02-12.076,4.83-19.279,5.428
		C40.861,117.86,33.049,116.656,25.897,113.544z"/>
	<path style="fill:#092C6A;" d="M104.934,107.813c-5.578-2.365-10.079-5.919-13.5-10.656c-3.424-4.737-5.398-10.272-5.923-16.606
		c-0.527-6.333,0.505-12.118,3.101-17.356c2.594-5.237,6.445-9.483,11.555-12.737c5.111-3.254,11.029-5.162,17.759-5.721
		c6.727-0.559,12.863,0.347,18.4,2.716c5.538,2.37,10.018,5.923,13.442,10.661c3.421,4.738,5.396,10.274,5.923,16.606
		c0.525,6.335-0.509,12.119-3.101,17.356c-2.595,5.237-6.428,9.483-11.497,12.733c-5.072,3.252-10.972,5.157-17.699,5.717
		C116.664,111.083,110.511,110.181,104.934,107.813z M133.428,89.543c2.78-3.46,3.949-7.88,3.501-13.264
		c-0.447-5.383-2.33-9.552-5.642-12.505c-3.315-2.953-7.347-4.231-12.096-3.836c-4.751,0.394-8.537,2.323-11.357,5.786
		c-2.82,3.463-4.007,7.886-3.561,13.269c0.448,5.384,2.349,9.549,5.702,12.5c3.354,2.949,7.407,4.226,12.156,3.832
		C126.881,94.929,130.646,93.002,133.428,89.543z"/>
	<path style="fill:#092C6A;" d="M266.774,39.483c5.1,4.32,8.042,11.189,8.825,20.61l3.04,36.575l-18.526,1.539l-2.802-33.725
		c-0.422-5.065-1.786-8.76-4.09-11.078c-2.304-2.32-5.398-3.318-9.276-2.996c-4.355,0.361-7.682,2.054-9.981,5.074
		c-2.301,3.021-3.219,7.304-2.759,12.843l2.665,32.063l-18.526,1.539l-2.802-33.725c-0.835-10.053-5.29-14.745-13.365-14.074
		c-4.276,0.355-7.564,2.044-9.864,5.064c-2.301,3.02-3.219,7.303-2.758,12.843l2.663,32.063l-18.526,1.539l-5.308-63.888
		l17.694-1.47l0.612,7.362c2.151-2.888,4.89-5.188,8.215-6.901c3.324-1.711,7.045-2.738,11.162-3.079
		c4.512-0.375,8.662,0.176,12.453,1.655c3.789,1.479,6.934,3.829,9.433,7.047c2.338-3.541,5.429-6.388,9.274-8.541
		c3.846-2.154,8.146-3.428,12.895-3.823C255.122,33.336,261.672,35.165,266.774,39.483z"/>
	<path style="fill:#092C6A;" d="M289.918,19.444c-2.301-1.8-3.574-4.167-3.817-7.096c-0.244-2.928,0.621-5.471,2.594-7.629
		c1.974-2.156,4.662-3.377,8.067-3.66c3.402-0.283,6.253,0.437,8.549,2.159c2.295,1.723,3.561,4.008,3.798,6.858
		c0.256,3.087-0.599,5.73-2.57,7.926c-1.969,2.196-4.658,3.436-8.06,3.719C295.073,22.005,292.221,21.247,289.918,19.444z
		 M289.955,31.398l18.527-1.539l5.308,63.888l-18.526,1.539L289.955,31.398z"/>
	<path style="fill:#092C6A;" d="M384.22,29.784c5.264,4.345,8.284,11.19,9.059,20.531l3.04,36.575l-18.526,1.539l-2.803-33.725
		c-0.42-5.065-1.843-8.754-4.266-11.064c-2.425-2.31-5.734-3.29-9.929-2.941c-4.672,0.388-8.272,2.143-10.803,5.261
		c-2.531,3.121-3.559,7.53-3.085,13.23l2.624,31.587l-18.526,1.54l-5.308-63.888l17.694-1.471l0.623,7.482
		c2.228-2.895,5.104-5.226,8.624-6.995c3.52-1.766,7.458-2.831,11.811-3.193C372.366,23.594,378.958,25.437,384.22,29.784z"/>
	<path style="fill:#092C6A;" d="M474.374,16.074l4.421,53.2c0.973,11.716-1.351,20.679-6.973,26.885
		c-5.623,6.207-14.293,9.797-26.008,10.771c-6.176,0.513-12.098,0.246-17.763-0.796c-5.667-1.044-10.441-2.839-14.318-5.387
		l6.256-13.912c2.874,1.993,6.426,3.473,10.653,4.436c4.223,0.965,8.394,1.276,12.512,0.934c6.412-0.532,11.023-2.371,13.83-5.513
		c2.806-3.145,3.968-7.642,3.481-13.502l-0.227-2.731c-4.388,5.706-10.898,8.917-19.526,9.633
		c-5.859,0.487-11.328-0.353-16.411-2.522c-5.082-2.167-9.242-5.468-12.482-9.904c-3.236-4.434-5.11-9.698-5.616-15.795
		c-0.506-6.095,0.471-11.596,2.932-16.504c2.463-4.908,6.021-8.85,10.675-11.829c4.656-2.976,9.91-4.709,15.771-5.197
		c9.261-0.769,16.562,1.693,21.897,7.387l-0.681-8.194L474.374,16.074z M454.825,59.25c2.886-3.148,4.135-7.058,3.747-11.73
		c-0.388-4.671-2.266-8.32-5.632-10.951c-3.369-2.629-7.506-3.74-12.413-3.332c-4.909,0.408-8.826,2.188-11.753,5.341
		c-2.927,3.154-4.195,7.064-3.807,11.735c0.388,4.672,2.285,8.321,5.692,10.946c3.407,2.628,7.564,3.736,12.473,3.328
		C448.039,64.178,451.936,62.4,454.825,59.25z"/>
</g>
<g>
	<path style="fill:#092C6A;" d="M88.949,237.244c-5.085-1.311-9.136-2.958-12.154-4.945l6.196-13.346
		c2.86,1.828,6.316,3.318,10.368,4.468c4.051,1.153,8.023,1.728,11.916,1.728c7.864,0,11.797-1.946,11.797-5.839
		c0-1.826-1.073-3.137-3.218-3.932c-2.145-0.793-5.442-1.469-9.89-2.026c-5.243-0.793-9.573-1.707-12.988-2.74
		c-3.417-1.031-6.375-2.86-8.877-5.482c-2.503-2.621-3.754-6.354-3.754-11.2c0-4.052,1.171-7.645,3.515-10.784
		c2.342-3.138,5.759-5.58,10.248-7.328c4.487-1.746,9.79-2.622,15.908-2.622c4.528,0,9.036,0.497,13.525,1.49
		c4.487,0.994,8.202,2.365,11.141,4.111l-6.197,13.227c-5.642-3.176-11.797-4.767-18.47-4.767c-3.973,0-6.952,0.557-8.937,1.668
		c-1.987,1.113-2.979,2.543-2.979,4.29c0,1.987,1.072,3.378,3.218,4.171c2.145,0.795,5.559,1.549,10.248,2.264
		c5.243,0.875,9.533,1.808,12.869,2.8c3.336,0.994,6.235,2.8,8.698,5.422c2.461,2.621,3.694,6.277,3.694,10.962
		c0,3.973-1.192,7.507-3.575,10.605c-2.383,3.098-5.86,5.502-10.426,7.209c-4.57,1.708-9.991,2.562-16.265,2.562
		C99.236,239.211,94.032,238.556,88.949,237.244z"/>
	<path style="fill:#092C6A;" d="M158.597,234.98c-5.362-2.818-9.553-6.733-12.571-11.737c-3.02-5.005-4.528-10.683-4.528-17.04
		c0-6.354,1.508-12.035,4.528-17.04c3.018-5.004,7.209-8.917,12.571-11.737c5.362-2.819,11.418-4.231,18.172-4.231
		c6.751,0,12.789,1.412,18.112,4.231c5.322,2.82,9.492,6.733,12.512,11.737c3.018,5.005,4.528,10.685,4.528,17.04
		c0,6.357-1.51,12.035-4.528,17.04c-3.02,5.005-7.19,8.919-12.512,11.737c-5.323,2.821-11.361,4.231-18.112,4.231
		C170.015,239.211,163.959,237.801,158.597,234.98z M188.506,219.133c3.057-3.218,4.588-7.526,4.588-12.929
		c0-5.402-1.531-9.712-4.588-12.929c-3.059-3.217-6.971-4.826-11.737-4.826c-4.767,0-8.699,1.609-11.797,4.826
		c-3.098,3.218-4.647,7.527-4.647,12.929c0,5.403,1.549,9.712,4.647,12.929c3.098,3.217,7.031,4.826,11.797,4.826
		C181.535,223.958,185.447,222.349,188.506,219.133z"/>
	<path style="fill:#092C6A;" d="M236.646,234.98c-5.362-2.818-9.553-6.733-12.571-11.737c-3.02-5.005-4.528-10.683-4.528-17.04
		c0-6.354,1.508-12.035,4.528-17.04c3.018-5.004,7.209-8.917,12.571-11.737c5.362-2.819,11.418-4.231,18.172-4.231
		c6.751,0,12.789,1.412,18.112,4.231c5.322,2.82,9.492,6.733,12.512,11.737c3.018,5.005,4.528,10.685,4.528,17.04
		c0,6.357-1.51,12.035-4.528,17.04c-3.02,5.005-7.19,8.919-12.512,11.737c-5.323,2.821-11.361,4.231-18.112,4.231
		C248.065,239.211,242.009,237.801,236.646,234.98z M266.556,219.133c3.057-3.218,4.588-7.526,4.588-12.929
		c0-5.402-1.531-9.712-4.588-12.929c-3.059-3.217-6.971-4.826-11.737-4.826c-4.767,0-8.699,1.609-11.797,4.826
		c-3.098,3.218-4.647,7.527-4.647,12.929c0,5.403,1.549,9.712,4.647,12.929c3.098,3.217,7.031,4.826,11.797,4.826
		C259.584,223.958,263.497,222.349,266.556,219.133z"/>
	<path style="fill:#092C6A;" d="M360.572,180.346c4.886,4.766,7.328,11.837,7.328,21.21v36.701h-18.589v-33.842
		c0-5.082-1.113-8.877-3.336-11.379c-2.225-2.503-5.442-3.754-9.652-3.754c-4.688,0-8.421,1.45-11.201,4.349
		c-2.782,2.9-4.17,7.209-4.17,12.929v31.696h-18.59V174.15h17.755v7.507c2.461-2.7,5.52-4.785,9.175-6.256
		c3.653-1.468,7.666-2.204,12.035-2.204C349.27,173.196,355.687,175.579,360.572,180.346z"/>
	<path style="fill:#092C6A;" d="M385.237,236.053c-2.186-2.104-3.277-4.666-3.277-7.686c0-3.018,1.073-5.541,3.218-7.567
		c2.145-2.026,4.885-3.038,8.222-3.038c3.336,0,6.077,1.012,8.222,3.038c2.145,2.026,3.217,4.549,3.217,7.567
		c0,3.02-1.092,5.582-3.276,7.686c-2.186,2.106-4.906,3.158-8.162,3.158C390.141,239.211,387.421,238.159,385.237,236.053z
		 M382.318,154.846h22.164l-3.694,54.456h-14.776L382.318,154.846z"/>
</g>
<g>
</g>
<g>
</g>
<g>
</g>
<g>
</g>
<g>
</g>
<g>
</g>
<g>
</g>
<g>
</g>
<g>
</g>
<g>
</g>
<g>
</g>
<g>
</g>
<g>
</g>
<g>
</g>
<g>
</g>
</svg>
