<?xml version="1.0" encoding="iso-8859-1"?>
<!-- Generator: Adobe Illustrator 24.1.0, SVG Export Plug-In . SVG Version: 6.00 Build 0)  -->
<svg version="1.1" id="Layer_1" xmlns="http://www.w3.org/2000/svg" xmlns:xlink="http://www.w3.org/1999/xlink" x="0px" y="0px"
	 viewBox="0 0 2157 7867" style="enable-background:new 0 0 2157 7867;" xml:space="preserve">
<polygon style="fill:#B1DDF1;" points="619.764,2658.5 620.956,2657.307 621.224,2658.11 1408.97,2447.888 1086.573,1239.795 
	0,1529.763 0,2017.559 200.877,2770.286 "/>
<polygon style="fill:#FF9B9E;" points="1133.264,4194.244 621.224,2658.11 620.956,2657.307 619.764,2658.5 0,3278.26 0,3817.581 
	1132.781,4195.178 "/>
<path style="fill:#FFED80;" d="M1070.982,3038.898c0,256.887,141.413,480.743,350.638,597.975l0.038-0.073l42.293,21.881
	c88.58,41.807,187.561,65.194,292.007,65.194c149.771,0,288.31-48.077,401.042-129.628V2483.548
	c-112.732-81.551-251.27-129.627-401.042-129.627C1377.656,2353.921,1070.982,2660.595,1070.982,3038.898z"/>
<polygon style="fill:#B1DDF1;" points="1421.658,3636.8 1421.62,3636.873 1133.264,4194.244 1132.781,4195.178 847.113,4747.352 
	847.119,4747.356 1957.665,5321.899 2157,4936.6 2157,4017.23 1463.951,3658.681 "/>
<path style="fill:#FFED80;" d="M1078.763,5260.858c0-204.462-89.587-387.995-231.644-513.502c-0.002-0.001-0.004-0.003-0.006-0.005
	c-120.781-106.708-279.489-171.47-453.327-171.47c-146.574,0-282.388,46.047-393.786,124.452v1121.05
	c111.397,78.404,247.212,124.452,393.786,124.452C772.088,5945.835,1078.763,5639.161,1078.763,5260.858z"/>
<polygon style="fill:#FF9B9E;" points="922.014,6416.148 922.365,6416.204 1239.926,6135.333 0,5879.986 0,7232.001 
	921.947,6416.574 "/>
<path style="fill:#FFED80;" d="M1717.96,5970.916c0,291.618,182.239,540.663,439.04,639.489V5331.427
	C1900.199,5430.252,1717.96,5679.297,1717.96,5970.916z"/>
<path style="fill:#FFED80;" d="M1372.078,805.497c0,437.986,349.566,794.325,784.922,805.244V0.254
	C1721.644,11.172,1372.078,367.511,1372.078,805.497z"/>
<polygon style="fill:#FF9B9E;" points="1504.283,1407.369 1128.706,0 906.353,0 0.211,801.886 "/>
<polygon style="fill:#B1DDF1;" points="922.014,6416.148 921.947,6416.574 727.385,7651.28 1086.223,7707.825 1086.227,7707.821 
	1086.228,7707.826 1962.516,7845.909 2157,6611.702 2157,6610.755 922.365,6416.204 "/>
<polygon style="fill:#FF9B9E;" points="1086.227,7707.821 1086.223,7707.825 906.353,7867 1128.706,7867 1086.228,7707.826 "/>
</svg>
