<?xml version="1.0" encoding="iso-8859-1"?>
<!-- Generator: Adobe Illustrator 24.1.0, SVG Export Plug-In . SVG Version: 6.00 Build 0)  -->
<svg version="1.1" id="Layer_1" xmlns="http://www.w3.org/2000/svg" xmlns:xlink="http://www.w3.org/1999/xlink" x="0px" y="0px"
	 viewBox="0 0 1125 5813" style="enable-background:new 0 0 1125 5813;" xml:space="preserve">
<polygon style="fill:#B1DDF1;" points="834.512,2420.103 545.68,1337.79 545.511,1337.722 0,1483.3 0,2643.175 834.298,2420.53 "/>
<path style="fill:#FF9B9E;" d="M834.298,2420.53L410.37,3268.387c0.414,0.024,0.828,0.046,1.242,0.071L1125,3138.751V1839.127
	l-290.488,580.977L834.298,2420.53z"/>
<path style="fill:#FFED80;" d="M1041.074,3937.286c0-356.429-278.305-647.846-629.463-668.828c-0.414-0.025-0.828-0.047-1.242-0.071
	c-13.019-0.754-26.135-1.149-39.343-1.149c-137.219,0-264.798,41.257-371.026,112.03v1116.035
	c106.229,70.773,233.807,112.031,371.026,112.031C741.084,4607.334,1041.074,4307.343,1041.074,3937.286z"/>
<path style="fill:#FFED80;" d="M615.718,697.906c0,61.708,7.659,121.626,22.054,178.867l5.602,20.993
	c66.846,235.724,248.991,422.966,481.626,496.947V1.098C829.675,95.016,615.718,371.469,615.718,697.906z"/>
<polygon style="fill:#FF9B9E;" points="545.68,1337.79 786.693,1434.812 643.374,897.766 637.771,876.773 403.792,0 219.774,0 
	0,194.488 0,1118.119 545.511,1337.722 "/>
<polygon style="fill:#B1DDF1;" points="0.225,5619.583 368.337,5681.53 368.636,5681.265 368.724,5681.595 1035.412,5793.788 
	1125,5261.424 1125,4744.361 174.43,4584.396 "/>
<polygon style="fill:#FF9B9E;" points="368.636,5681.265 368.337,5681.53 219.774,5813 403.792,5813 368.724,5681.595 "/>
</svg>
